<?xml version="1.0" encoding="utf-8"?>
<!-- Generator: Adobe Illustrator 19.0.1, SVG Export Plug-In . SVG Version: 6.00 Build 0)  -->
<svg version="1.1" id="Layer_1" xmlns="http://www.w3.org/2000/svg" xmlns:xlink="http://www.w3.org/1999/xlink" x="0px" y="0px"
	 viewBox="0 0 595.3 841.9" style="enable-background:new 0 0 595.3 841.9;" xml:space="preserve">
<style type="text/css">
	.st0{fill:#FFFFFF;}
</style>
<g>
	<circle cx="160.6" cy="168.2" r="58.5"/>
	<g>
		<path class="st0" d="M156,166c0,0,6.2-0.5,6.2-7.7c0-7.2-5-10.8-11.4-10.8h-21V188h21c0,0,12.8,0.4,12.8-11.9
			C163.5,176,164.1,166,156,166z M139,154.8h11.8c0,0,2.9,0,2.9,4.2c0,4.2-1.7,4.8-3.6,4.8h-11V154.8z M150.2,180.8H139V170h11.8
			c0,0,4.3-0.1,4.3,5.5C155,180.2,151.8,180.7,150.2,180.8z"/>
		<rect x="171.9" y="150" class="st0" width="16.7" height="5"/>
		<path class="st0" d="M180.6,157.9c-15.5,0-15.5,15.5-15.5,15.5s-1.1,15.4,15.5,15.4c0,0,13.8,0.8,13.8-10.7h-7.1
			c0,0,0.2,4.3-6.5,4.3c0,0-7.1,0.5-7.1-7h20.9C194.7,175.4,197,157.9,180.6,157.9z M173.7,170c0,0,0.9-6.2,7.1-6.2
			c6.2,0,6.2,6.2,6.2,6.2H173.7z"/>
	</g>
</g>
</svg>
