<?xml version="1.0" encoding="utf-8"?>
<!-- Generator: Adobe Illustrator 19.0.1, SVG Export Plug-In . SVG Version: 6.00 Build 0)  -->
<svg version="1.1" id="Layer_1" xmlns="http://www.w3.org/2000/svg" xmlns:xlink="http://www.w3.org/1999/xlink" x="0px" y="0px"
	 viewBox="0 0 595.3 841.9" style="enable-background:new 0 0 595.3 841.9;" xml:space="preserve">
<style type="text/css">
	.st0{fill:#FFFFFF;}
</style>
<g>
	<circle cx="176.2" cy="174.6" r="58.7"/>
	<g id="_x33_4hbmL.tif">
		<g>
			<path class="st0" d="M176.3,141.9c4.4,0.1,8.8,0.1,13.2,0.2c3.8,0.1,7.5,0.8,10.8,2.8c4.3,2.7,7,6.6,7.9,11.5c0.5,3,0.7,6,0.7,9
				c0.1,6.5,0.1,13,0,19.5c0,3.4-0.2,6.8-1.3,10.1c-2.2,6.4-6.7,10.2-13.2,11.5c-3,0.6-6,0.7-9,0.7c-6.5,0.1-12.9,0.1-19.4,0
				c-3.4,0-6.8-0.1-10.1-1.3c-6.4-2.2-10.2-6.6-11.5-13.2c-0.6-3-0.7-6-0.7-9c-0.1-6.5-0.1-13,0-19.5c0-3.4,0.2-6.8,1.3-10.1
				c2.2-6.4,6.7-10.2,13.2-11.5c3-0.6,6-0.6,9-0.7C170.2,141.9,173.2,142,176.3,141.9C176.3,141.9,176.3,141.9,176.3,141.9z
				 M203.2,174.1c0,0-0.1,0-0.1,0c0-2.6,0.1-5.2,0-7.7c-0.1-2.5-0.2-5-0.4-7.4c-0.6-5.5-3.9-9.3-9.3-10.4c-2.9-0.5-5.8-0.6-8.8-0.7
				c-5.5-0.1-11.1-0.1-16.6,0c-2.8,0-5.6,0.1-8.3,0.6c-4.7,0.7-8,3.4-9.3,8.1c-0.4,1.5-0.7,3.1-0.7,4.7c-0.1,5.9-0.2,11.8-0.2,17.8
				c0,3.8,0.1,7.5,0.4,11.3c0.5,5.6,3.9,9.5,9.5,10.5c2.8,0.5,5.8,0.6,8.7,0.6c5.5,0.1,10.9,0.1,16.4,0c2.5,0,5-0.2,7.5-0.4
				c2.3-0.2,4.5-1,6.4-2.5c3-2.4,4.2-5.7,4.4-9.4C203,184.1,203,179.1,203.2,174.1z"/>
			<path class="st0" d="M193,174.7c0,9.3-7.5,16.8-16.8,16.8c-9.4,0-16.8-7.5-16.8-17c0-9.2,7.6-16.6,17-16.6
				C185.6,157.9,193,165.4,193,174.7z M176.2,185.6c6,0,10.9-4.9,10.9-10.9c0-6-4.9-10.9-10.9-10.9c-6,0-10.9,4.9-10.9,10.9
				C165.3,180.6,170.3,185.5,176.2,185.6z"/>
			<path class="st0" d="M197.6,157.2c0,2.2-1.8,4-3.9,4c-2.2,0-4-1.8-4-4c0-2.2,1.8-3.9,3.9-3.9C195.9,153.3,197.6,155,197.6,157.2z
				"/>
		</g>
	</g>
</g>
</svg>
