<?xml version="1.0" encoding="utf-8"?>
<!-- Generator: Adobe Illustrator 19.0.1, SVG Export Plug-In . SVG Version: 6.00 Build 0)  -->
<svg version="1.1" id="Layer_1" xmlns="http://www.w3.org/2000/svg" xmlns:xlink="http://www.w3.org/1999/xlink" x="0px" y="0px"
	 viewBox="0 0 595.3 841.9" style="enable-background:new 0 0 595.3 841.9;" xml:space="preserve">
<style type="text/css">
	.st0{fill:#1D1D1B;}
</style>
<g>
	<g>
		<g>
			<path class="st0" d="M135.7,267.1v2.9h-20v-35.3h3.1v32.3H135.7z"/>
			<path class="st0" d="M144,235.8c0,1.2-1,2.2-2.2,2.2c-1.2,0-2.2-1-2.2-2.2c0-1.2,1-2.2,2.2-2.2C143,233.6,144,234.6,144,235.8z
				 M143.3,266c0,1.1,0.9,1.8,1.8,1.8c0.5,0,1.1-0.2,1.4-0.8l2.4,1.5c-0.9,1.3-2.2,2.1-3.8,2.1c-2.6,0-4.6-2.1-4.6-4.6v-21.6h2.8
				V266z"/>
			<path class="st0" d="M153,265.4c2.3,1.5,4.9,2.5,7.6,2.5c3.1,0,6.1-1.2,6.1-4.7c0-2.2-1.2-3.5-3.6-4.6
				c-4.4-2.1-10.2-2.8-10.2-8.2c0-4.2,3.4-6.5,7.6-6.5c2.1,0,4.9,0.6,6.6,1.6l-0.6,2.6c-2.2-1.1-4.5-1.5-6.1-1.5
				c-2.9,0-4.5,1.4-4.5,3.5c0,4.1,6.2,4.7,10.2,7.1c2.3,1.4,3.6,3.2,3.6,6c0,5.3-4.6,7.4-9.3,7.4c-3.5,0-6.4-1.1-8.8-3L153,265.4z"
				/>
			<path class="st0" d="M201.1,268.5c-0.9,1.5-2.4,2.1-3.8,2.1c-2.4,0-4.3-1.8-4.6-4c-1.6,2.8-4.5,4-7.8,4c-7.4,0-11-6.2-11-13.2
				c0-7.9,4.7-13.5,12.6-13.5c1.5,0,4.3,0.2,6.2,0.5h2.8V266c0,1.1,0.9,1.8,1.8,1.8c0.6,0,1.1-0.3,1.5-0.8L201.1,268.5z M192.7,247
				c-1.6,0-4.7-0.4-6.5-0.4c-6.1,0-9.3,4.7-9.3,10.7c0,5.4,2.6,10.6,8.1,10.6c3.2,0,5.8-1.8,7-4.2c0.5-0.9,0.7-2,0.7-3.3V247z"/>
		</g>
	</g>
	<g>
		<g>
			<path class="st0" d="M253.3,267.4c-3,2.1-6.2,3-9.5,3c-7.8,0-11.6-5-11.6-12.6c0-7.9,4.2-14.1,11.2-14.1c4.8,0,9.3,3,9.3,7.8
				h-2.9c0-3.6-2.9-5.3-6.1-5.3c-6.1,0-8.6,6.2-8.6,11.6c0,6.2,3.2,9.8,8.8,9.8c3,0,5.6-1.1,8.1-2.5L253.3,267.4z"/>
			<path class="st0" d="M262.5,248.3c2.2-3.1,5-4.5,8.7-4.5c5.7,0,8.4,2.9,8.4,8.3v13.8c0,1.1,0.9,1.8,1.8,1.8
				c0.6,0,1.1-0.3,1.4-0.8l2.4,1.6c-0.9,1.3-2.3,2-3.8,2c-2.7,0-4.6-2-4.6-4.6v-13.7c0-4-2.1-5.8-5.9-5.8c-3.7,0-5.9,2-8.3,5.2v18.3
				h-2.8v-37.4h2.8V248.3z"/>
			<path class="st0" d="M289.2,243.9c2,1.5,4.1,3.2,4.1,6.1v11.6c0,4.2,1.9,6.2,5.8,6.2c3.8,0,5.9-1.8,8.5-5.2v-18.3h2.8V266
				c0,1.1,1,1.8,1.9,1.8c0.5,0,1.1-0.3,1.4-0.8l2.4,1.6c-1,1.3-2.2,2-3.8,2c-2.7,0-4.6-2-4.7-4.6c-2.5,3.2-5.1,4.4-8.7,4.4
				c-5.1,0-8-2.4-8.3-7.5V250c0-1.8-1.9-3.1-2.8-3.8L289.2,243.9z"/>
		</g>
	</g>
	<path class="st0" d="M265.7,96.1c-0.5-0.5-1.3-0.6-2-0.3l-27,13.5c-0.9,0.4-1.2,1.5-0.8,2.4c0.4,0.9,1.5,1.2,2.4,0.8l22.7-11.4
		l-37.7,89.3l-12.7,0.1l-44.3-89.2l22.3,11.1c0.9,0.4,1.9,0.1,2.4-0.8c0.4-0.9,0.1-1.9-0.8-2.4l-27-13.5c-0.7-0.3-1.5-0.2-2,0.3
		c-0.5,0.5-0.7,1.4-0.3,2L216,209.4c0.3,0.6,0.9,1,1.6,1c0,0,0,0,0.1,0c0.7,0,1.3-0.4,1.6-1.1l46.9-111.2
		C266.4,97.4,266.2,96.6,265.7,96.1z"/>
	<path class="st0" d="M232,130.8c0,1.4-1.1,2.6-2.6,2.6s-2.6-1.1-2.6-2.6c0-1.4,1.1-2.6,2.6-2.6S232,129.4,232,130.8z"/>
	<path class="st0" d="M205.8,130.8c0,1.4-1.1,2.6-2.6,2.6c-1.4,0-2.6-1.1-2.6-2.6c0-1.4,1.1-2.6,2.6-2.6
		C204.7,128.3,205.8,129.4,205.8,130.8z"/>
	<path class="st0" d="M219.1,267.2c0,1.2-1,2.2-2.3,2.2c-1.2,0-2.3-1-2.3-2.2c0-1.3,1-2.3,2.3-2.3
		C218.1,264.9,219.1,265.9,219.1,267.2z"/>
</g>
</svg>
