<svg xmlns="http://www.w3.org/2000/svg" viewBox="0 0 19.39 51.71"><defs><style>.cls-1{fill:none;stroke:#1d1d1b;stroke-linecap:round;stroke-linejoin:round;stroke-width:1.5px;}.cls-2{fill:#1d1d1b;}</style></defs><title>Asset 1</title><g id="Layer_2" data-name="Layer 2"><g id="Layer_1-2" data-name="Layer 1"><path class="cls-1" d="M4.55,51V42.11a1.11,1.11,0,0,0-.34-.8C3.29,40.4.75,37.25.75,30.18c0-4.76,2.31-9.18,5.35-13.5C8.56,13.18,9,.75,9,.75h1V51"/><path class="cls-1" d="M14.83,51V42.11a1.11,1.11,0,0,1,.34-.8c.93-.91,3.47-4.06,3.47-11.13,0-4.76-2.31-9.18-5.35-13.5C10.83,13.18,10.43.75,10.43.75h-1V51"/><path class="cls-2" d="M8.73,20s0,7-2,8c-.79.43-.63,1.43-.15,2.48A1.12,1.12,0,0,0,8.73,30Z"/><path class="cls-2" d="M10.67,20s0,7,2,8c.79.43.63,1.43.15,2.48A1.12,1.12,0,0,1,10.67,30Z"/></g></g></svg>